# xmcd
#
# Track frame offsets:
#	150
#	14801
#	35018
#	50081
#	63581
#	78850
#	98741
#	113562
#	132394
#	145289
#	146132
#	146959
#	147860
#	149003
#	149954
#	150821
#	151688
#
# Disc length: 2029 seconds
#
# Revision: 1
# Processed by: cddbd v1.5.2PL0 Copyright (c) Steve Scherf et al.
# Submitted via: audiograbber 1.83.01
#
DISCID=0b07eb11
DTITLE=Various Artist - CDX 605
DYEAR=2014
DGENRE=Country
TTITLE0=Garth Brooks - People Loving People (Single Edit)
TTITLE1=Eric Paslay - She Don't Love You
TTITLE2=Jon Pardi - When I've Been Drinkin'
TTITLE3=Jo Dee Messina - He's Messed Up
TTITLE4=Erica Nicole - Its Comin' Down
TTITLE5=Chris Chitsey - Lonely In Tucson
TTITLE6=Simon Andersson - MIA (US Version)
TTITLE7=Taria - Parading In Your Rain
TTITLE8=Livewire - w. Shannon McCombs - Listen To Hear The Night The Bar Fight 
TTITLE8=Broke Out (Mini Interview)
TTITLE9=Livewire - Home Town Country (Liner)
TTITLE10=Livewire - Kickin' Country (Liner)
TTITLE11=Livewire - The Country You Love (Liner)
TTITLE12=Livewire - Our New Single (Liner)
TTITLE13=Livewire - Super Country (Liner)
TTITLE14=Livewire - Best In Country Music (Liner)
TTITLE15=Livewire - Today's Best Country (Liner)
TTITLE16=Livewire - Today's Hot Country Music (Liner)
EXTD=
EXTT0=
EXTT1=
EXTT2=
EXTT3=
EXTT4=
EXTT5=
EXTT6=
EXTT7=
EXTT8=
EXTT9=
EXTT10=
EXTT11=
EXTT12=
EXTT13=
EXTT14=
EXTT15=
EXTT16=
PLAYORDER=
